<svg xmlns="http://www.w3.org/2000/svg" viewBox="0 0 1200 900" width="1200" height="900" role="img" aria-labelledby="title"><title id="title">MONUMENT packaging study</title><defs><linearGradient id="monument-packaging-body"><stop stop-color="#414240"/><stop offset=".28" stop-color="#272826"/><stop offset=".8" stop-color="#20211f"/><stop offset="1" stop-color="#272826"/></linearGradient></defs><rect x="0" y="0" width="1200" height="900" rx="0" fill="#ECEAE1"/><ellipse cx="650" cy="781" rx="349" ry="29" fill="#c9c7bf"/><ellipse cx="650" cy="788" rx="260" ry="14" fill="#d4d3cb"/><path d="M308 280L735 137L941 281L515 439Z" fill="#C3C0B7"/><path d="M308 280L515 439V746L308 587Z" fill="#E58C56"/><path d="M515 439L941 281V587L515 746Z" fill="#272826"/><g transform="matrix(.94 -.35 0 1 537 461)"><g fill="#ECEAE1" color="#ECEAE1" transform="translate(21 17) scale(1.06) rotate(0 50 50)"><path d="M5 69H95V95H5ZM21 39H79V64H21ZM37 8H63V34H37Z"/><path d="M6 8H27V20H6ZM73 83H95V95H73Z"/></g><g aria-label="MONUMENT" fill="#ECEAE1" transform="translate(24 191) scale(0.6262487248670542)"><path d="M1191 750L1191 0L969 0L969 664L1015 659L744 0L512 0L240 657L286 663L286 0L65 0L65 750L424 750L671 123L586 123L831 750Z" transform="translate(0 0) scale(0.069 -0.069)"/><path d="M485 -17Q350 -17 248.5 32Q147 81 90.5 169Q34 257 34 375Q34 493 90.5 581Q147 669 248.5 718Q350 767 485 767Q620 767 721.5 718Q823 669 879.5 581Q936 493 936 375Q936 257 879.5 169Q823 81 721.5 32Q620 -17 485 -17ZM485 190Q552 190 600.5 212.5Q649 235 675 276.5Q701 318 701 375Q701 432 675 473.5Q649 515 600.5 537.5Q552 560 485 560Q418 560 369.5 537.5Q321 515 295 473.5Q269 432 269 375Q269 318 295 276.5Q321 235 369.5 212.5Q418 190 485 190Z" transform="translate(83.86260000000001 0) scale(0.069 -0.069)"/><path d="M760 166L693 152L693 750L919 750L919 0L627 0L224 598L290 612L290 0L65 0L65 750L366 750Z" transform="translate(148.0602 0) scale(0.069 -0.069)"/><path d="M288 340Q288 293 305 260Q322 227 356 208.5Q390 190 441 190Q494 190 528 208Q562 226 578.5 259.5Q595 293 595 340L595 750L828 750L828 327Q828 224 780 146.5Q732 69 645 26Q558 -17 441 -17Q326 -17 239 26Q152 69 103.5 146.5Q55 224 55 327L55 750L288 750Z" transform="translate(213.15480000000002 0) scale(0.069 -0.069)"/><path d="M1191 750L1191 0L969 0L969 664L1015 659L744 0L512 0L240 657L286 663L286 0L65 0L65 750L424 750L671 123L586 123L831 750Z" transform="translate(271.3632 0) scale(0.069 -0.069)"/><path d="M720 457L720 293L163 293L163 457ZM322 375L275 85L184 186L755 186L755 0L44 0L100 375L44 750L750 750L750 564L184 564L275 665Z" transform="translate(355.22580000000005 0) scale(0.069 -0.069)"/><path d="M760 166L693 152L693 750L919 750L919 0L627 0L224 598L290 612L290 0L65 0L65 750L366 750Z" transform="translate(407.85900000000004 0) scale(0.069 -0.069)"/><path d="M298 649L531 649L531 0L298 0ZM20 750L809 750L809 543L20 543Z" transform="translate(472.95360000000005 0) scale(0.069 -0.069)"/></g><g aria-label="CONSIDERED BY DESIGN" fill="#ECEAE1" transform="translate(24 244) scale(1)"><path d="M305 -12Q220 -12 158.5 33Q97 78 64.5 159Q32 240 32 350Q32 459 64.5 540.5Q97 622 158.5 667Q220 712 305 712Q413 712 479 652.5Q545 593 556 494L463 494Q453 553 413 593Q373 633 305 633Q218 633 168 557.5Q118 482 118 350Q118 217 168 142Q218 67 305 67Q376 67 414.5 105Q453 143 463 203L556 203Q540 103 476.5 45.5Q413 -12 305 -12Z" transform="translate(0 0) scale(0.011 -0.011)"/><path d="M300 -12Q215 -12 154 33Q93 78 60.5 159.5Q28 241 28 350Q28 459 60.5 540.5Q93 622 154 667Q215 712 300 712Q385 712 446 667Q507 622 539.5 540.5Q572 459 572 350Q572 241 539.5 159.5Q507 78 446 33Q385 -12 300 -12ZM300 67Q383 67 434.5 141Q486 215 486 350Q486 485 434.5 559Q383 633 300 633Q216 633 165 559Q114 485 114 350Q114 215 165 141Q216 67 300 67Z" transform="translate(6.6 0) scale(0.011 -0.011)"/><path d="M57 0L57 700L143 700L461 147L461 700L544 700L544 0L457 0L139 553L139 0Z" transform="translate(13.2 0) scale(0.011 -0.011)"/><path d="M307 -12Q233 -12 178.5 16Q124 44 94.5 94Q65 144 64 211L152 211Q153 151 192.5 107.5Q232 64 307 64Q376 64 413.5 97.5Q451 131 451 178Q451 217 433 243.5Q415 270 374.5 290.5Q334 311 266 333Q170 362 126 412Q82 462 82 536Q82 586 108 626Q134 666 183 689Q232 712 302 712Q368 712 417.5 687.5Q467 663 494.5 619Q522 575 522 518L434 518Q434 546 419 573Q404 600 374 618Q344 636 298 636Q243 636 206 609.5Q169 583 169 537Q169 502 185.5 478Q202 454 240 434.5Q278 415 343 393Q404 373 447.5 346.5Q491 320 514.5 281Q538 242 538 184Q538 127 509 83Q480 39 428 13.5Q376 -12 307 -12Z" transform="translate(19.799999999999997 0) scale(0.011 -0.011)"/><path d="M99 0L99 73L258 73L258 627L99 627L99 700L501 700L501 627L342 627L342 73L501 73L501 0Z" transform="translate(26.4 0) scale(0.011 -0.011)"/><path d="M66 0L66 700L213 700Q385 700 467.5 606Q550 512 550 350Q550 188 467.5 94Q385 0 213 0ZM150 77L211 77Q303 77 358.5 111Q414 145 439 206Q464 267 464 350Q464 433 439 494Q414 555 358.5 589Q303 623 211 623L150 623Z" transform="translate(33 0) scale(0.011 -0.011)"/><path d="M86 0L86 700L523 700L523 624L170 624L170 391L493 391L493 315L170 315L170 76L523 76L523 0Z" transform="translate(39.6 0) scale(0.011 -0.011)"/><path d="M82 0L82 700L297 700Q378 700 430.5 673Q483 646 509 599.5Q535 553 535 494Q535 425 499.5 372.5Q464 320 391 299L543 0L443 0L302 287L297 287L166 287L166 0ZM166 364L294 364Q374 364 411.5 400.5Q449 437 449 494Q449 554 412.5 589Q376 624 293 624L166 624Z" transform="translate(46.2 0) scale(0.011 -0.011)"/><path d="M86 0L86 700L523 700L523 624L170 624L170 391L493 391L493 315L170 315L170 76L523 76L523 0Z" transform="translate(52.800000000000004 0) scale(0.011 -0.011)"/><path d="M66 0L66 700L213 700Q385 700 467.5 606Q550 512 550 350Q550 188 467.5 94Q385 0 213 0ZM150 77L211 77Q303 77 358.5 111Q414 145 439 206Q464 267 464 350Q464 433 439 494Q414 555 358.5 589Q303 623 211 623L150 623Z" transform="translate(59.400000000000006 0) scale(0.011 -0.011)"/><path d="" transform="translate(66 0) scale(0.011 -0.011)"/><path d="M66 0L66 700L299 700Q408 700 463 650Q518 600 518 522Q518 461 485 421.5Q452 382 411 366L411 359Q460 343 497 301Q534 259 534 193Q534 139 507.5 95.5Q481 52 430.5 26Q380 0 307 0ZM150 398L293 398Q360 398 395.5 427.5Q431 457 431 513Q431 566 396 595Q361 624 290 624L150 624ZM150 77L298 77Q370 77 409 109.5Q448 142 448 201Q448 260 407 292.5Q366 325 296 325L150 325Z" transform="translate(72.6 0) scale(0.011 -0.011)"/><path d="M258 0L258 275L31 700L126 700L300 360L474 700L569 700L342 275L342 0Z" transform="translate(79.19999999999999 0) scale(0.011 -0.011)"/><path d="" transform="translate(85.79999999999998 0) scale(0.011 -0.011)"/><path d="M66 0L66 700L213 700Q385 700 467.5 606Q550 512 550 350Q550 188 467.5 94Q385 0 213 0ZM150 77L211 77Q303 77 358.5 111Q414 145 439 206Q464 267 464 350Q464 433 439 494Q414 555 358.5 589Q303 623 211 623L150 623Z" transform="translate(92.39999999999998 0) scale(0.011 -0.011)"/><path d="M86 0L86 700L523 700L523 624L170 624L170 391L493 391L493 315L170 315L170 76L523 76L523 0Z" transform="translate(98.99999999999997 0) scale(0.011 -0.011)"/><path d="M307 -12Q233 -12 178.5 16Q124 44 94.5 94Q65 144 64 211L152 211Q153 151 192.5 107.5Q232 64 307 64Q376 64 413.5 97.5Q451 131 451 178Q451 217 433 243.5Q415 270 374.5 290.5Q334 311 266 333Q170 362 126 412Q82 462 82 536Q82 586 108 626Q134 666 183 689Q232 712 302 712Q368 712 417.5 687.5Q467 663 494.5 619Q522 575 522 518L434 518Q434 546 419 573Q404 600 374 618Q344 636 298 636Q243 636 206 609.5Q169 583 169 537Q169 502 185.5 478Q202 454 240 434.5Q278 415 343 393Q404 373 447.5 346.5Q491 320 514.5 281Q538 242 538 184Q538 127 509 83Q480 39 428 13.5Q376 -12 307 -12Z" transform="translate(105.59999999999997 0) scale(0.011 -0.011)"/><path d="M99 0L99 73L258 73L258 627L99 627L99 700L501 700L501 627L342 627L342 73L501 73L501 0Z" transform="translate(112.19999999999996 0) scale(0.011 -0.011)"/><path d="M293 -12Q219 -12 161 31.5Q103 75 70.5 156Q38 237 38 350Q38 462 71 543Q104 624 164.5 668Q225 712 308 712Q407 712 469.5 654Q532 596 544 498L451 498Q441 558 404.5 595.5Q368 633 308 633Q222 633 173 558Q124 483 124 350Q124 215 173 141Q222 67 300 67Q356 67 392 100.5Q428 134 446.5 186.5Q465 239 467 295L311 295L311 367L553 367L553 0L476 0L469 106L465 106Q444 52 403.5 20Q363 -12 293 -12Z" transform="translate(118.79999999999995 0) scale(0.011 -0.011)"/><path d="M57 0L57 700L143 700L461 147L461 700L544 700L544 0L457 0L139 553L139 0Z" transform="translate(125.39999999999995 0) scale(0.011 -0.011)"/></g></g><g transform="rotate(-7 258 682)"><rect x="105" y="579" width="283" height="147" rx="0" fill="#C3C0B7"/><g aria-label="MONUMENT" fill="#272826" transform="translate(129 662) scale(0.53954791564121)"><path d="M1191 750L1191 0L969 0L969 664L1015 659L744 0L512 0L240 657L286 663L286 0L65 0L65 750L424 750L671 123L586 123L831 750Z" transform="translate(0 0) scale(0.055 -0.055)"/><path d="M485 -17Q350 -17 248.5 32Q147 81 90.5 169Q34 257 34 375Q34 493 90.5 581Q147 669 248.5 718Q350 767 485 767Q620 767 721.5 718Q823 669 879.5 581Q936 493 936 375Q936 257 879.5 169Q823 81 721.5 32Q620 -17 485 -17ZM485 190Q552 190 600.5 212.5Q649 235 675 276.5Q701 318 701 375Q701 432 675 473.5Q649 515 600.5 537.5Q552 560 485 560Q418 560 369.5 537.5Q321 515 295 473.5Q269 432 269 375Q269 318 295 276.5Q321 235 369.5 212.5Q418 190 485 190Z" transform="translate(66.84700000000001 0) scale(0.055 -0.055)"/><path d="M760 166L693 152L693 750L919 750L919 0L627 0L224 598L290 612L290 0L65 0L65 750L366 750Z" transform="translate(118.019 0) scale(0.055 -0.055)"/><path d="M288 340Q288 293 305 260Q322 227 356 208.5Q390 190 441 190Q494 190 528 208Q562 226 578.5 259.5Q595 293 595 340L595 750L828 750L828 327Q828 224 780 146.5Q732 69 645 26Q558 -17 441 -17Q326 -17 239 26Q152 69 103.5 146.5Q55 224 55 327L55 750L288 750Z" transform="translate(169.906 0) scale(0.055 -0.055)"/><path d="M1191 750L1191 0L969 0L969 664L1015 659L744 0L512 0L240 657L286 663L286 0L65 0L65 750L424 750L671 123L586 123L831 750Z" transform="translate(216.304 0) scale(0.055 -0.055)"/><path d="M720 457L720 293L163 293L163 457ZM322 375L275 85L184 186L755 186L755 0L44 0L100 375L44 750L750 750L750 564L184 564L275 665Z" transform="translate(283.151 0) scale(0.055 -0.055)"/><path d="M760 166L693 152L693 750L919 750L919 0L627 0L224 598L290 612L290 0L65 0L65 750L366 750Z" transform="translate(325.105 0) scale(0.055 -0.055)"/><path d="M298 649L531 649L531 0L298 0ZM20 750L809 750L809 543L20 543Z" transform="translate(376.992 0) scale(0.055 -0.055)"/></g><g aria-label="EDITION 02 / OPENFORM ORIGINAL" fill="#272826" transform="translate(130 700) scale(1)"><path d="M86 0L86 700L523 700L523 624L170 624L170 391L493 391L493 315L170 315L170 76L523 76L523 0Z" transform="translate(0 0) scale(0.008 -0.008)"/><path d="M66 0L66 700L213 700Q385 700 467.5 606Q550 512 550 350Q550 188 467.5 94Q385 0 213 0ZM150 77L211 77Q303 77 358.5 111Q414 145 439 206Q464 267 464 350Q464 433 439 494Q414 555 358.5 589Q303 623 211 623L150 623Z" transform="translate(4.8 0) scale(0.008 -0.008)"/><path d="M99 0L99 73L258 73L258 627L99 627L99 700L501 700L501 627L342 627L342 73L501 73L501 0Z" transform="translate(9.6 0) scale(0.008 -0.008)"/><path d="M258 0L258 624L70 624L70 700L530 700L530 624L342 624L342 0Z" transform="translate(14.399999999999999 0) scale(0.008 -0.008)"/><path d="M99 0L99 73L258 73L258 627L99 627L99 700L501 700L501 627L342 627L342 73L501 73L501 0Z" transform="translate(19.2 0) scale(0.008 -0.008)"/><path d="M300 -12Q215 -12 154 33Q93 78 60.5 159.5Q28 241 28 350Q28 459 60.5 540.5Q93 622 154 667Q215 712 300 712Q385 712 446 667Q507 622 539.5 540.5Q572 459 572 350Q572 241 539.5 159.5Q507 78 446 33Q385 -12 300 -12ZM300 67Q383 67 434.5 141Q486 215 486 350Q486 485 434.5 559Q383 633 300 633Q216 633 165 559Q114 485 114 350Q114 215 165 141Q216 67 300 67Z" transform="translate(24 0) scale(0.008 -0.008)"/><path d="M57 0L57 700L143 700L461 147L461 700L544 700L544 0L457 0L139 553L139 0Z" transform="translate(28.8 0) scale(0.008 -0.008)"/><path d="" transform="translate(33.6 0) scale(0.008 -0.008)"/><path d="M300 -12Q221 -12 160.5 32Q100 76 66.5 157Q33 238 33 350Q33 462 66.5 543Q100 624 160.5 668Q221 712 300 712Q380 712 440 668Q500 624 533.5 543Q567 462 567 350Q567 238 533.5 157Q500 76 440 32Q380 -12 300 -12ZM119 350Q119 282 133.5 227.5Q148 173 174 136L368 617Q337 634 300 634Q247 634 206 599.5Q165 565 142 501.5Q119 438 119 350ZM300 65Q353 65 394 99.5Q435 134 458 198Q481 262 481 350Q481 418 466.5 472.5Q452 527 426 564L231 82Q263 65 300 65Z" transform="translate(38.4 0) scale(0.008 -0.008)"/><path d="M74 0L74 66Q182 152 262.5 224Q343 296 387 363Q431 430 431 500Q431 563 395.5 599.5Q360 636 300 636Q254 636 222 616Q190 596 174 563Q158 530 158 492L75 492Q76 561 105.5 610.5Q135 660 185.5 686Q236 712 300 712Q403 712 460 655Q517 598 517 502Q517 439 490 381.5Q463 324 418 271Q373 218 317 169Q261 120 204 75L536 75L536 0Z" transform="translate(43.199999999999996 0) scale(0.008 -0.008)"/><path d="" transform="translate(47.99999999999999 0) scale(0.008 -0.008)"/><path d="M83 -90L429 760L517 760L170 -90Z" transform="translate(52.79999999999999 0) scale(0.008 -0.008)"/><path d="" transform="translate(57.59999999999999 0) scale(0.008 -0.008)"/><path d="M300 -12Q215 -12 154 33Q93 78 60.5 159.5Q28 241 28 350Q28 459 60.5 540.5Q93 622 154 667Q215 712 300 712Q385 712 446 667Q507 622 539.5 540.5Q572 459 572 350Q572 241 539.5 159.5Q507 78 446 33Q385 -12 300 -12ZM300 67Q383 67 434.5 141Q486 215 486 350Q486 485 434.5 559Q383 633 300 633Q216 633 165 559Q114 485 114 350Q114 215 165 141Q216 67 300 67Z" transform="translate(62.399999999999984 0) scale(0.008 -0.008)"/><path d="M74 0L74 700L307 700Q387 700 438 671Q489 642 513 594Q537 546 537 488Q537 430 513 382Q489 334 438 305Q387 276 307 276L158 276L158 0ZM158 353L305 353Q379 353 415 390.5Q451 428 451 488Q451 548 415 586Q379 624 305 624L158 624Z" transform="translate(67.19999999999999 0) scale(0.008 -0.008)"/><path d="M86 0L86 700L523 700L523 624L170 624L170 391L493 391L493 315L170 315L170 76L523 76L523 0Z" transform="translate(71.99999999999999 0) scale(0.008 -0.008)"/><path d="M57 0L57 700L143 700L461 147L461 700L544 700L544 0L457 0L139 553L139 0Z" transform="translate(76.79999999999998 0) scale(0.008 -0.008)"/><path d="M91 0L91 700L528 700L528 622L175 622L175 378L477 378L477 303L175 303L175 0Z" transform="translate(81.59999999999998 0) scale(0.008 -0.008)"/><path d="M300 -12Q215 -12 154 33Q93 78 60.5 159.5Q28 241 28 350Q28 459 60.5 540.5Q93 622 154 667Q215 712 300 712Q385 712 446 667Q507 622 539.5 540.5Q572 459 572 350Q572 241 539.5 159.5Q507 78 446 33Q385 -12 300 -12ZM300 67Q383 67 434.5 141Q486 215 486 350Q486 485 434.5 559Q383 633 300 633Q216 633 165 559Q114 485 114 350Q114 215 165 141Q216 67 300 67Z" transform="translate(86.39999999999998 0) scale(0.008 -0.008)"/><path d="M82 0L82 700L297 700Q378 700 430.5 673Q483 646 509 599.5Q535 553 535 494Q535 425 499.5 372.5Q464 320 391 299L543 0L443 0L302 287L297 287L166 287L166 0ZM166 364L294 364Q374 364 411.5 400.5Q449 437 449 494Q449 554 412.5 589Q376 624 293 624L166 624Z" transform="translate(91.19999999999997 0) scale(0.008 -0.008)"/><path d="M50 0L50 700L140 700L300 367L460 700L550 700L550 0L468 0L468 538L332 255L268 255L132 537L132 0Z" transform="translate(95.99999999999997 0) scale(0.008 -0.008)"/><path d="" transform="translate(100.79999999999997 0) scale(0.008 -0.008)"/><path d="M300 -12Q215 -12 154 33Q93 78 60.5 159.5Q28 241 28 350Q28 459 60.5 540.5Q93 622 154 667Q215 712 300 712Q385 712 446 667Q507 622 539.5 540.5Q572 459 572 350Q572 241 539.5 159.5Q507 78 446 33Q385 -12 300 -12ZM300 67Q383 67 434.5 141Q486 215 486 350Q486 485 434.5 559Q383 633 300 633Q216 633 165 559Q114 485 114 350Q114 215 165 141Q216 67 300 67Z" transform="translate(105.59999999999997 0) scale(0.008 -0.008)"/><path d="M82 0L82 700L297 700Q378 700 430.5 673Q483 646 509 599.5Q535 553 535 494Q535 425 499.5 372.5Q464 320 391 299L543 0L443 0L302 287L297 287L166 287L166 0ZM166 364L294 364Q374 364 411.5 400.5Q449 437 449 494Q449 554 412.5 589Q376 624 293 624L166 624Z" transform="translate(110.39999999999996 0) scale(0.008 -0.008)"/><path d="M99 0L99 73L258 73L258 627L99 627L99 700L501 700L501 627L342 627L342 73L501 73L501 0Z" transform="translate(115.19999999999996 0) scale(0.008 -0.008)"/><path d="M293 -12Q219 -12 161 31.5Q103 75 70.5 156Q38 237 38 350Q38 462 71 543Q104 624 164.5 668Q225 712 308 712Q407 712 469.5 654Q532 596 544 498L451 498Q441 558 404.5 595.5Q368 633 308 633Q222 633 173 558Q124 483 124 350Q124 215 173 141Q222 67 300 67Q356 67 392 100.5Q428 134 446.5 186.5Q465 239 467 295L311 295L311 367L553 367L553 0L476 0L469 106L465 106Q444 52 403.5 20Q363 -12 293 -12Z" transform="translate(119.99999999999996 0) scale(0.008 -0.008)"/><path d="M99 0L99 73L258 73L258 627L99 627L99 700L501 700L501 627L342 627L342 73L501 73L501 0Z" transform="translate(124.79999999999995 0) scale(0.008 -0.008)"/><path d="M57 0L57 700L143 700L461 147L461 700L544 700L544 0L457 0L139 553L139 0Z" transform="translate(129.59999999999997 0) scale(0.008 -0.008)"/><path d="M33 0L252 700L349 700L567 0L475 0L424 174L176 174L125 0ZM298 582L197 244L403 244L302 582Z" transform="translate(134.39999999999998 0) scale(0.008 -0.008)"/><path d="M87 0L87 700L171 700L171 76L526 76L526 0Z" transform="translate(139.2 0) scale(0.008 -0.008)"/></g></g><g aria-label="A STUDY IN PERMANENCE" fill="#272826" transform="translate(52 71) scale(1)"><path d="M33 0L252 700L349 700L567 0L475 0L424 174L176 174L125 0ZM298 582L197 244L403 244L302 582Z" transform="translate(0 0) scale(0.015 -0.015)"/><path d="" transform="translate(9 0) scale(0.015 -0.015)"/><path d="M307 -12Q233 -12 178.5 16Q124 44 94.5 94Q65 144 64 211L152 211Q153 151 192.5 107.5Q232 64 307 64Q376 64 413.5 97.5Q451 131 451 178Q451 217 433 243.5Q415 270 374.5 290.5Q334 311 266 333Q170 362 126 412Q82 462 82 536Q82 586 108 626Q134 666 183 689Q232 712 302 712Q368 712 417.5 687.5Q467 663 494.5 619Q522 575 522 518L434 518Q434 546 419 573Q404 600 374 618Q344 636 298 636Q243 636 206 609.5Q169 583 169 537Q169 502 185.5 478Q202 454 240 434.5Q278 415 343 393Q404 373 447.5 346.5Q491 320 514.5 281Q538 242 538 184Q538 127 509 83Q480 39 428 13.5Q376 -12 307 -12Z" transform="translate(18 0) scale(0.015 -0.015)"/><path d="M258 0L258 624L70 624L70 700L530 700L530 624L342 624L342 0Z" transform="translate(27 0) scale(0.015 -0.015)"/><path d="M299 -12Q229 -12 174.5 17Q120 46 88.5 105.5Q57 165 57 255L57 700L141 700L141 252Q141 162 185 113Q229 64 301 64Q373 64 416 113Q459 162 459 252L459 700L543 700L543 255Q543 165 511 105.5Q479 46 424 17Q369 -12 299 -12Z" transform="translate(36 0) scale(0.015 -0.015)"/><path d="M66 0L66 700L213 700Q385 700 467.5 606Q550 512 550 350Q550 188 467.5 94Q385 0 213 0ZM150 77L211 77Q303 77 358.5 111Q414 145 439 206Q464 267 464 350Q464 433 439 494Q414 555 358.5 589Q303 623 211 623L150 623Z" transform="translate(45 0) scale(0.015 -0.015)"/><path d="M258 0L258 275L31 700L126 700L300 360L474 700L569 700L342 275L342 0Z" transform="translate(54 0) scale(0.015 -0.015)"/><path d="" transform="translate(63 0) scale(0.015 -0.015)"/><path d="M99 0L99 73L258 73L258 627L99 627L99 700L501 700L501 627L342 627L342 73L501 73L501 0Z" transform="translate(72 0) scale(0.015 -0.015)"/><path d="M57 0L57 700L143 700L461 147L461 700L544 700L544 0L457 0L139 553L139 0Z" transform="translate(81 0) scale(0.015 -0.015)"/><path d="" transform="translate(90 0) scale(0.015 -0.015)"/><path d="M74 0L74 700L307 700Q387 700 438 671Q489 642 513 594Q537 546 537 488Q537 430 513 382Q489 334 438 305Q387 276 307 276L158 276L158 0ZM158 353L305 353Q379 353 415 390.5Q451 428 451 488Q451 548 415 586Q379 624 305 624L158 624Z" transform="translate(99 0) scale(0.015 -0.015)"/><path d="M86 0L86 700L523 700L523 624L170 624L170 391L493 391L493 315L170 315L170 76L523 76L523 0Z" transform="translate(108 0) scale(0.015 -0.015)"/><path d="M82 0L82 700L297 700Q378 700 430.5 673Q483 646 509 599.5Q535 553 535 494Q535 425 499.5 372.5Q464 320 391 299L543 0L443 0L302 287L297 287L166 287L166 0ZM166 364L294 364Q374 364 411.5 400.5Q449 437 449 494Q449 554 412.5 589Q376 624 293 624L166 624Z" transform="translate(117 0) scale(0.015 -0.015)"/><path d="M50 0L50 700L140 700L300 367L460 700L550 700L550 0L468 0L468 538L332 255L268 255L132 537L132 0Z" transform="translate(126 0) scale(0.015 -0.015)"/><path d="M33 0L252 700L349 700L567 0L475 0L424 174L176 174L125 0ZM298 582L197 244L403 244L302 582Z" transform="translate(135 0) scale(0.015 -0.015)"/><path d="M57 0L57 700L143 700L461 147L461 700L544 700L544 0L457 0L139 553L139 0Z" transform="translate(144 0) scale(0.015 -0.015)"/><path d="M86 0L86 700L523 700L523 624L170 624L170 391L493 391L493 315L170 315L170 76L523 76L523 0Z" transform="translate(153 0) scale(0.015 -0.015)"/><path d="M57 0L57 700L143 700L461 147L461 700L544 700L544 0L457 0L139 553L139 0Z" transform="translate(162 0) scale(0.015 -0.015)"/><path d="M305 -12Q220 -12 158.5 33Q97 78 64.5 159Q32 240 32 350Q32 459 64.5 540.5Q97 622 158.5 667Q220 712 305 712Q413 712 479 652.5Q545 593 556 494L463 494Q453 553 413 593Q373 633 305 633Q218 633 168 557.5Q118 482 118 350Q118 217 168 142Q218 67 305 67Q376 67 414.5 105Q453 143 463 203L556 203Q540 103 476.5 45.5Q413 -12 305 -12Z" transform="translate(171 0) scale(0.015 -0.015)"/><path d="M86 0L86 700L523 700L523 624L170 624L170 391L493 391L493 315L170 315L170 76L523 76L523 0Z" transform="translate(180 0) scale(0.015 -0.015)"/></g><g aria-label="ORIGINAL VECTOR APPLICATION / EDITION 02" fill="#272826" transform="translate(885.0000000000001 853) scale(1)"><path d="M300 -12Q215 -12 154 33Q93 78 60.5 159.5Q28 241 28 350Q28 459 60.5 540.5Q93 622 154 667Q215 712 300 712Q385 712 446 667Q507 622 539.5 540.5Q572 459 572 350Q572 241 539.5 159.5Q507 78 446 33Q385 -12 300 -12ZM300 67Q383 67 434.5 141Q486 215 486 350Q486 485 434.5 559Q383 633 300 633Q216 633 165 559Q114 485 114 350Q114 215 165 141Q216 67 300 67Z" transform="translate(0 0) scale(0.011 -0.011)"/><path d="M82 0L82 700L297 700Q378 700 430.5 673Q483 646 509 599.5Q535 553 535 494Q535 425 499.5 372.5Q464 320 391 299L543 0L443 0L302 287L297 287L166 287L166 0ZM166 364L294 364Q374 364 411.5 400.5Q449 437 449 494Q449 554 412.5 589Q376 624 293 624L166 624Z" transform="translate(6.6 0) scale(0.011 -0.011)"/><path d="M99 0L99 73L258 73L258 627L99 627L99 700L501 700L501 627L342 627L342 73L501 73L501 0Z" transform="translate(13.2 0) scale(0.011 -0.011)"/><path d="M293 -12Q219 -12 161 31.5Q103 75 70.5 156Q38 237 38 350Q38 462 71 543Q104 624 164.5 668Q225 712 308 712Q407 712 469.5 654Q532 596 544 498L451 498Q441 558 404.5 595.5Q368 633 308 633Q222 633 173 558Q124 483 124 350Q124 215 173 141Q222 67 300 67Q356 67 392 100.5Q428 134 446.5 186.5Q465 239 467 295L311 295L311 367L553 367L553 0L476 0L469 106L465 106Q444 52 403.5 20Q363 -12 293 -12Z" transform="translate(19.799999999999997 0) scale(0.011 -0.011)"/><path d="M99 0L99 73L258 73L258 627L99 627L99 700L501 700L501 627L342 627L342 73L501 73L501 0Z" transform="translate(26.4 0) scale(0.011 -0.011)"/><path d="M57 0L57 700L143 700L461 147L461 700L544 700L544 0L457 0L139 553L139 0Z" transform="translate(33 0) scale(0.011 -0.011)"/><path d="M33 0L252 700L349 700L567 0L475 0L424 174L176 174L125 0ZM298 582L197 244L403 244L302 582Z" transform="translate(39.6 0) scale(0.011 -0.011)"/><path d="M87 0L87 700L171 700L171 76L526 76L526 0Z" transform="translate(46.2 0) scale(0.011 -0.011)"/><path d="" transform="translate(52.800000000000004 0) scale(0.011 -0.011)"/><path d="M250 0L27 700L117 700L300 109L483 700L574 700L350 0Z" transform="translate(59.400000000000006 0) scale(0.011 -0.011)"/><path d="M86 0L86 700L523 700L523 624L170 624L170 391L493 391L493 315L170 315L170 76L523 76L523 0Z" transform="translate(66 0) scale(0.011 -0.011)"/><path d="M305 -12Q220 -12 158.5 33Q97 78 64.5 159Q32 240 32 350Q32 459 64.5 540.5Q97 622 158.5 667Q220 712 305 712Q413 712 479 652.5Q545 593 556 494L463 494Q453 553 413 593Q373 633 305 633Q218 633 168 557.5Q118 482 118 350Q118 217 168 142Q218 67 305 67Q376 67 414.5 105Q453 143 463 203L556 203Q540 103 476.5 45.5Q413 -12 305 -12Z" transform="translate(72.6 0) scale(0.011 -0.011)"/><path d="M258 0L258 624L70 624L70 700L530 700L530 624L342 624L342 0Z" transform="translate(79.19999999999999 0) scale(0.011 -0.011)"/><path d="M300 -12Q215 -12 154 33Q93 78 60.5 159.5Q28 241 28 350Q28 459 60.5 540.5Q93 622 154 667Q215 712 300 712Q385 712 446 667Q507 622 539.5 540.5Q572 459 572 350Q572 241 539.5 159.5Q507 78 446 33Q385 -12 300 -12ZM300 67Q383 67 434.5 141Q486 215 486 350Q486 485 434.5 559Q383 633 300 633Q216 633 165 559Q114 485 114 350Q114 215 165 141Q216 67 300 67Z" transform="translate(85.79999999999998 0) scale(0.011 -0.011)"/><path d="M82 0L82 700L297 700Q378 700 430.5 673Q483 646 509 599.5Q535 553 535 494Q535 425 499.5 372.5Q464 320 391 299L543 0L443 0L302 287L297 287L166 287L166 0ZM166 364L294 364Q374 364 411.5 400.5Q449 437 449 494Q449 554 412.5 589Q376 624 293 624L166 624Z" transform="translate(92.39999999999998 0) scale(0.011 -0.011)"/><path d="" transform="translate(98.99999999999997 0) scale(0.011 -0.011)"/><path d="M33 0L252 700L349 700L567 0L475 0L424 174L176 174L125 0ZM298 582L197 244L403 244L302 582Z" transform="translate(105.59999999999997 0) scale(0.011 -0.011)"/><path d="M74 0L74 700L307 700Q387 700 438 671Q489 642 513 594Q537 546 537 488Q537 430 513 382Q489 334 438 305Q387 276 307 276L158 276L158 0ZM158 353L305 353Q379 353 415 390.5Q451 428 451 488Q451 548 415 586Q379 624 305 624L158 624Z" transform="translate(112.19999999999996 0) scale(0.011 -0.011)"/><path d="M74 0L74 700L307 700Q387 700 438 671Q489 642 513 594Q537 546 537 488Q537 430 513 382Q489 334 438 305Q387 276 307 276L158 276L158 0ZM158 353L305 353Q379 353 415 390.5Q451 428 451 488Q451 548 415 586Q379 624 305 624L158 624Z" transform="translate(118.79999999999995 0) scale(0.011 -0.011)"/><path d="M87 0L87 700L171 700L171 76L526 76L526 0Z" transform="translate(125.39999999999995 0) scale(0.011 -0.011)"/><path d="M99 0L99 73L258 73L258 627L99 627L99 700L501 700L501 627L342 627L342 73L501 73L501 0Z" transform="translate(131.99999999999994 0) scale(0.011 -0.011)"/><path d="M305 -12Q220 -12 158.5 33Q97 78 64.5 159Q32 240 32 350Q32 459 64.5 540.5Q97 622 158.5 667Q220 712 305 712Q413 712 479 652.5Q545 593 556 494L463 494Q453 553 413 593Q373 633 305 633Q218 633 168 557.5Q118 482 118 350Q118 217 168 142Q218 67 305 67Q376 67 414.5 105Q453 143 463 203L556 203Q540 103 476.5 45.5Q413 -12 305 -12Z" transform="translate(138.59999999999994 0) scale(0.011 -0.011)"/><path d="M33 0L252 700L349 700L567 0L475 0L424 174L176 174L125 0ZM298 582L197 244L403 244L302 582Z" transform="translate(145.19999999999993 0) scale(0.011 -0.011)"/><path d="M258 0L258 624L70 624L70 700L530 700L530 624L342 624L342 0Z" transform="translate(151.79999999999993 0) scale(0.011 -0.011)"/><path d="M99 0L99 73L258 73L258 627L99 627L99 700L501 700L501 627L342 627L342 73L501 73L501 0Z" transform="translate(158.39999999999992 0) scale(0.011 -0.011)"/><path d="M300 -12Q215 -12 154 33Q93 78 60.5 159.5Q28 241 28 350Q28 459 60.5 540.5Q93 622 154 667Q215 712 300 712Q385 712 446 667Q507 622 539.5 540.5Q572 459 572 350Q572 241 539.5 159.5Q507 78 446 33Q385 -12 300 -12ZM300 67Q383 67 434.5 141Q486 215 486 350Q486 485 434.5 559Q383 633 300 633Q216 633 165 559Q114 485 114 350Q114 215 165 141Q216 67 300 67Z" transform="translate(164.99999999999991 0) scale(0.011 -0.011)"/><path d="M57 0L57 700L143 700L461 147L461 700L544 700L544 0L457 0L139 553L139 0Z" transform="translate(171.5999999999999 0) scale(0.011 -0.011)"/><path d="" transform="translate(178.1999999999999 0) scale(0.011 -0.011)"/><path d="M83 -90L429 760L517 760L170 -90Z" transform="translate(184.7999999999999 0) scale(0.011 -0.011)"/><path d="" transform="translate(191.3999999999999 0) scale(0.011 -0.011)"/><path d="M86 0L86 700L523 700L523 624L170 624L170 391L493 391L493 315L170 315L170 76L523 76L523 0Z" transform="translate(197.9999999999999 0) scale(0.011 -0.011)"/><path d="M66 0L66 700L213 700Q385 700 467.5 606Q550 512 550 350Q550 188 467.5 94Q385 0 213 0ZM150 77L211 77Q303 77 358.5 111Q414 145 439 206Q464 267 464 350Q464 433 439 494Q414 555 358.5 589Q303 623 211 623L150 623Z" transform="translate(204.59999999999988 0) scale(0.011 -0.011)"/><path d="M99 0L99 73L258 73L258 627L99 627L99 700L501 700L501 627L342 627L342 73L501 73L501 0Z" transform="translate(211.19999999999987 0) scale(0.011 -0.011)"/><path d="M258 0L258 624L70 624L70 700L530 700L530 624L342 624L342 0Z" transform="translate(217.79999999999987 0) scale(0.011 -0.011)"/><path d="M99 0L99 73L258 73L258 627L99 627L99 700L501 700L501 627L342 627L342 73L501 73L501 0Z" transform="translate(224.39999999999986 0) scale(0.011 -0.011)"/><path d="M300 -12Q215 -12 154 33Q93 78 60.5 159.5Q28 241 28 350Q28 459 60.5 540.5Q93 622 154 667Q215 712 300 712Q385 712 446 667Q507 622 539.5 540.5Q572 459 572 350Q572 241 539.5 159.5Q507 78 446 33Q385 -12 300 -12ZM300 67Q383 67 434.5 141Q486 215 486 350Q486 485 434.5 559Q383 633 300 633Q216 633 165 559Q114 485 114 350Q114 215 165 141Q216 67 300 67Z" transform="translate(230.99999999999986 0) scale(0.011 -0.011)"/><path d="M57 0L57 700L143 700L461 147L461 700L544 700L544 0L457 0L139 553L139 0Z" transform="translate(237.59999999999985 0) scale(0.011 -0.011)"/><path d="" transform="translate(244.19999999999985 0) scale(0.011 -0.011)"/><path d="M300 -12Q221 -12 160.5 32Q100 76 66.5 157Q33 238 33 350Q33 462 66.5 543Q100 624 160.5 668Q221 712 300 712Q380 712 440 668Q500 624 533.5 543Q567 462 567 350Q567 238 533.5 157Q500 76 440 32Q380 -12 300 -12ZM119 350Q119 282 133.5 227.5Q148 173 174 136L368 617Q337 634 300 634Q247 634 206 599.5Q165 565 142 501.5Q119 438 119 350ZM300 65Q353 65 394 99.5Q435 134 458 198Q481 262 481 350Q481 418 466.5 472.5Q452 527 426 564L231 82Q263 65 300 65Z" transform="translate(250.79999999999984 0) scale(0.011 -0.011)"/><path d="M74 0L74 66Q182 152 262.5 224Q343 296 387 363Q431 430 431 500Q431 563 395.5 599.5Q360 636 300 636Q254 636 222 616Q190 596 174 563Q158 530 158 492L75 492Q76 561 105.5 610.5Q135 660 185.5 686Q236 712 300 712Q403 712 460 655Q517 598 517 502Q517 439 490 381.5Q463 324 418 271Q373 218 317 169Q261 120 204 75L536 75L536 0Z" transform="translate(257.39999999999986 0) scale(0.011 -0.011)"/></g></svg>